<?xml version="1.0" encoding="UTF-8"?>
<svg width="105px" height="22px" viewBox="0 0 105 22" version="1.1" xmlns="http://www.w3.org/2000/svg" xmlns:xlink="http://www.w3.org/1999/xlink">
    <!-- Generator: sketchtool 49.3 (51167) - http://www.bohemiancoding.com/sketch -->
    <title>4B82ABBD-FB1E-4011-9DEF-59E70BC2004D</title>
    <desc>Created with sketchtool.</desc>
    <defs></defs>
    <g id="Page-1" stroke="none" stroke-width="1" fill="none" fill-rule="evenodd" opacity="0.699999988">
        <g id="E-VS-Home-1280px" transform="translate(-223.000000, -3389.000000)" fill="#FFFFFF">
            <path d="M223,3389 L327.5,3389 L327.5,3411 L223,3411 L223,3389 Z M229.979042,3395.38642 L229.979042,3405.5 L237.381125,3405.5 L237.381125,3403.77025 L232.410042,3403.77025 L232.410042,3395.38642 L229.979042,3395.38642 Z M243.866083,3405.54675 C244.33878,3405.61947 244.855622,3405.65583 245.416625,3405.65583 C246.580186,3405.65583 247.629454,3405.46884 248.564458,3405.09483 C249.083905,3404.88705 249.491665,3404.58059 249.78775,3404.17542 C250.083835,3403.77025 250.231875,3403.28717 250.231875,3402.72617 L250.231875,3398.3005 C250.231875,3397.76028 250.117598,3397.29797 249.889042,3396.91358 C249.670874,3396.53958 249.400765,3396.2487 249.078708,3396.04092 C248.756651,3395.83314 248.346294,3395.65653 247.847625,3395.51108 C247.411289,3395.3968 247.016516,3395.32149 246.663292,3395.28512 C246.310068,3395.24876 245.894516,3395.23058 245.416625,3395.23058 C245.011456,3395.23058 244.627071,3395.24617 244.263458,3395.27733 C243.868679,3395.3085 243.442738,3395.39161 242.985625,3395.52667 C242.528512,3395.66172 242.144127,3395.82794 241.832458,3396.02533 C241.479234,3396.25389 241.190946,3396.56555 240.967583,3396.96033 C240.744221,3397.35511 240.632542,3397.80183 240.632542,3398.3005 L240.632542,3402.72617 C240.632542,3403.32873 240.788373,3403.84037 241.100042,3404.26112 C241.41171,3404.68188 241.842844,3404.98575 242.393458,3405.17275 C242.902516,3405.34936 243.393387,3405.47403 243.866083,3405.54675 Z M257.301208,3405.57792 C257.747933,3405.62986 258.262178,3405.65583 258.843958,3405.65583 C259.519239,3405.65583 260.25944,3405.5935 261.064583,3405.46883 C261.869726,3405.34417 262.532011,3405.18833 263.051458,3405.00133 L263.051458,3399.74975 L259.077708,3399.74975 L259.077708,3401.33925 L260.729542,3401.33925 L260.729542,3403.69233 C260.147761,3403.84817 259.60235,3403.92608 259.093292,3403.92608 C258.137509,3403.92608 257.42328,3403.8222 256.950583,3403.61442 C256.477887,3403.40664 256.241542,3403.05342 256.241542,3402.55475 L256.241542,3398.4875 C256.241542,3397.46938 257.119394,3396.96033 258.875125,3396.96033 C260.412688,3396.96033 261.784008,3397.10578 262.989125,3397.39667 L262.989125,3395.55783 C261.680118,3395.33967 260.308799,3395.23058 258.875125,3395.23058 C258.345289,3395.23058 257.893377,3395.25136 257.519375,3395.29292 C257.072651,3395.34486 256.618141,3395.44875 256.155833,3395.60458 C255.693525,3395.76042 255.296154,3395.94742 254.963708,3396.16558 C254.610484,3396.40453 254.329987,3396.72918 254.122208,3397.13954 C253.91443,3397.5499 253.810542,3398.00961 253.810542,3398.51867 L253.810542,3402.72617 C253.810542,3403.19367 253.904041,3403.60922 254.091042,3403.97283 C254.278043,3404.31567 254.522179,3404.59357 254.823458,3404.80654 C255.124738,3405.01951 255.509123,3405.18833 255.976625,3405.313 C256.412961,3405.43767 256.854484,3405.52597 257.301208,3405.57792 Z M266.848292,3395.38642 L266.848292,3405.5 L269.279292,3405.5 L269.279292,3395.38642 L266.848292,3395.38642 Z M272.982625,3405.37533 C274.40591,3405.56233 275.60062,3405.65583 276.566792,3405.65583 C277.27324,3405.65583 277.878386,3405.61168 278.38225,3405.52337 C278.886114,3405.43507 279.345817,3405.28183 279.761375,3405.06367 C280.623657,3404.63772 281.054792,3403.8222 281.054792,3402.61708 L281.054792,3401.947 C281.054792,3401.07433 280.795072,3400.42503 280.275625,3399.99908 C279.756178,3399.57314 278.919881,3399.36017 277.766708,3399.36017 L276.551208,3399.36017 C275.657759,3399.36017 275.211042,3399.09525 275.211042,3398.56542 L275.211042,3397.84858 C275.211042,3397.53692 275.361679,3397.30836 275.662958,3397.16292 C275.94346,3397.02786 276.494065,3396.96033 277.314792,3396.96033 C277.906961,3396.96033 278.987395,3397.05383 280.556125,3397.24083 L280.556125,3395.43317 C279.278285,3395.29811 278.223824,3395.23058 277.392708,3395.23058 C275.792811,3395.23058 274.624073,3395.43836 273.886458,3395.85392 C273.148844,3396.26947 272.780042,3396.91877 272.780042,3397.80183 L272.780042,3398.54983 C272.780042,3400.31595 273.891642,3401.199 276.114875,3401.199 L277.299208,3401.199 C277.797877,3401.199 278.143305,3401.2873 278.3355,3401.46392 C278.527695,3401.64053 278.623792,3401.89505 278.623792,3402.2275 L278.623792,3402.882 C278.623792,3403.57806 277.948521,3403.92608 276.597958,3403.92608 C275.953844,3403.92608 274.748745,3403.79103 272.982625,3403.52092 L272.982625,3405.37533 Z M286.908625,3397.11617 L286.908625,3405.5 L289.339625,3405.5 L289.339625,3397.11617 L292.440708,3397.11617 L292.440708,3395.38642 L283.791958,3395.38642 L283.791958,3397.11617 L286.908625,3397.11617 Z M295.676542,3395.38642 L295.676542,3405.5 L298.107542,3405.5 L298.107542,3395.38642 L295.676542,3395.38642 Z M305.371667,3405.5935 C305.730085,3405.63506 306.137845,3405.65583 306.594958,3405.65583 C307.665019,3405.65583 308.755842,3405.54156 309.867458,3405.313 L309.867458,3403.47417 C308.568841,3403.77545 307.561129,3403.92608 306.844292,3403.92608 C305.171672,3403.92608 304.335375,3403.46898 304.335375,3402.55475 L304.335375,3398.25375 C304.335375,3397.68236 304.579511,3397.31356 305.067792,3397.14733 C305.296348,3397.06422 305.51711,3397.01228 305.730083,3396.9915 C305.943057,3396.97072 306.241734,3396.96033 306.626125,3396.96033 C307.540352,3396.96033 308.600008,3397.10578 309.805125,3397.39667 L309.805125,3395.57342 C308.464952,3395.34486 307.394907,3395.23058 306.594958,3395.23058 C303.467887,3395.23058 301.904375,3396.24868 301.904375,3398.28492 L301.904375,3402.72617 C301.904375,3403.22484 302.013457,3403.65597 302.231625,3404.01958 C302.439404,3404.3832 302.699123,3404.66629 303.010792,3404.86888 C303.32246,3405.07146 303.717234,3405.23508 304.195125,3405.35975 C304.621072,3405.47403 305.013248,3405.55194 305.371667,3405.5935 Z M312.947458,3405.37533 C314.370743,3405.56233 315.565454,3405.65583 316.531625,3405.65583 C317.238073,3405.65583 317.84322,3405.61168 318.347083,3405.52337 C318.850947,3405.43507 319.310651,3405.28183 319.726208,3405.06367 C320.58849,3404.63772 321.019625,3403.8222 321.019625,3402.61708 L321.019625,3401.947 C321.019625,3401.07433 320.759905,3400.42503 320.240458,3399.99908 C319.721011,3399.57314 318.884714,3399.36017 317.731542,3399.36017 L316.516042,3399.36017 C315.622593,3399.36017 315.175875,3399.09525 315.175875,3398.56542 L315.175875,3397.84858 C315.175875,3397.53692 315.326512,3397.30836 315.627792,3397.16292 C315.908293,3397.02786 316.458899,3396.96033 317.279625,3396.96033 C317.871795,3396.96033 318.952228,3397.05383 320.520958,3397.24083 L320.520958,3395.43317 C319.243119,3395.29811 318.188657,3395.23058 317.357542,3395.23058 C315.757645,3395.23058 314.588906,3395.43836 313.851292,3395.85392 C313.113677,3396.26947 312.744875,3396.91877 312.744875,3397.80183 L312.744875,3398.54983 C312.744875,3400.31595 313.856475,3401.199 316.079708,3401.199 L317.264042,3401.199 C317.762711,3401.199 318.108138,3401.2873 318.300333,3401.46392 C318.492529,3401.64053 318.588625,3401.89505 318.588625,3402.2275 L318.588625,3402.882 C318.588625,3403.57806 317.913354,3403.92608 316.562792,3403.92608 C315.918677,3403.92608 314.713578,3403.79103 312.947458,3403.52092 L312.947458,3405.37533 Z M246.312667,3403.88712 C246.078915,3403.9131 245.790627,3403.92608 245.447792,3403.92608 C245.104957,3403.92608 244.816668,3403.9131 244.582917,3403.88712 C244.349165,3403.86115 244.107626,3403.81181 243.858292,3403.73908 C243.598568,3403.66636 243.401181,3403.54429 243.266125,3403.37287 C243.131069,3403.20146 243.063542,3402.98589 243.063542,3402.72617 L243.063542,3398.28492 C243.063542,3397.79664 243.255734,3397.45381 243.640125,3397.25642 C244.024516,3397.05903 244.621871,3396.96033 245.432208,3396.96033 C246.242546,3396.96033 246.839901,3397.06162 247.224292,3397.26421 C247.608682,3397.46679 247.800875,3397.80703 247.800875,3398.28492 L247.800875,3402.72617 C247.800875,3402.98589 247.735945,3403.20146 247.606083,3403.37287 C247.476222,3403.54429 247.286626,3403.66636 247.037292,3403.73908 C246.787957,3403.81181 246.546418,3403.86115 246.312667,3403.88712 Z" id="Combined-Shape"></path>
        </g>
    </g>
</svg>