<?xml version="1.0" encoding="UTF-8"?>
<svg width="46px" height="22px" viewBox="0 0 46 22" version="1.1" xmlns="http://www.w3.org/2000/svg" xmlns:xlink="http://www.w3.org/1999/xlink">
    <!-- Generator: sketchtool 49.3 (51167) - http://www.bohemiancoding.com/sketch -->
    <title>13E13C80-E851-4F02-A2D7-F494EE03FD2D</title>
    <desc>Created with sketchtool.</desc>
    <defs></defs>
    <g id="Page-1" stroke="none" stroke-width="1" fill="none" fill-rule="evenodd" opacity="0.699999988">
        <g id="E-VS-Home-1280px" transform="translate(-533.000000, -3389.000000)" fill="#FFFFFF">
            <g id="Group-3" transform="translate(533.000000, 3389.000000)">
                <path d="M30.105998,21.3411932 C30.0778558,21.2343487 29.9960503,21.2202136 29.9010014,21.204277 C27.9590518,20.8775073 27.0985075,19.9524913 27.0651232,17.9394902 C27.0120117,14.7349853 27.0387743,11.5290946 27.0328424,8.32389682 C27.0306352,7.21609489 27.0322906,7.21609489 25.900119,7.21581773 C25.7394049,7.21581773 25.5786909,7.21595631 25.4179769,7.21581773 C24.2228992,7.21457052 23.6517781,6.35191514 24.1008117,5.22942381 C24.2300727,4.90625717 24.4561759,4.69492393 24.7982967,4.62979171 C24.9547342,4.60013577 25.1169657,4.59514692 25.276852,4.59209818 C27.0324285,4.5587006 27.0324285,4.55925491 27.0324285,2.81218723 C27.0324285,2.46629361 27.0698135,2.11541113 27.0251171,1.77547641 C26.9117206,0.912543878 27.2269408,0.320256477 28.0367187,0 L29.1403343,0 C30.1185516,0.407145621 30.2642289,0.631921046 30.2645048,1.73334834 C30.2647807,2.24110244 30.2646427,2.74871797 30.2646427,3.25633349 C30.2646427,4.59085096 30.2646427,4.59029665 31.5605633,4.59098954 C34.8451992,4.59279107 38.1298351,4.5879408 41.414609,4.60166014 C42.3473021,4.60540178 43.2813748,4.68619344 44.1715787,4.98718741 C44.8734782,5.22443496 45.1251026,5.71916262 44.9979109,6.45238504 C44.8905843,7.0722497 44.4861091,7.37061067 43.7488939,7.35398117 C43.4511936,7.34746795 43.1540451,7.31268457 42.8568966,7.28746316 C41.9177198,7.20764156 40.9779911,7.15498147 40.0404696,7.29217485 C39.5219083,7.36811624 39.0266608,7.53940011 38.8591871,8.0984285 C38.6845399,8.68156968 38.816422,9.21523809 39.2422797,9.68613013 C40.0215702,10.5480926 40.9706796,11.1955345 41.9091667,11.852677 C42.8915226,12.540584 43.7833819,13.3105299 44.5114923,14.2743481 C44.9218994,14.8175785 44.9963934,15.4877474 45.2807124,16.0751845 L45.2807124,17.7381346 C45.066473,17.8598071 45.106755,18.1031522 45.0536435,18.2846909 C44.7141437,19.4476473 43.9708586,20.2236907 42.8749683,20.6866838 C42.0225632,21.046851 41.1392569,21.2451578 40.2104264,21.214809 C39.5815035,21.2215994 38.9523047,21.2283898 38.3232438,21.234903 C38.2109509,21.2895032 38.0564447,21.2020597 37.9692591,21.3411932 L37.6933552,21.3411932 C37.1954866,21.0474053 36.5980167,21.1301371 36.0794553,20.9078561 C35.4466697,20.6365181 35.1742146,20.0550399 35.3447232,19.3050494 C35.4772951,18.721631 35.9660588,18.423963 36.6696138,18.5035074 C37.0576726,18.5472984 37.4436621,18.6268429 37.8322728,18.6400079 C38.7871762,18.6721583 39.7492531,18.7505941 40.6965691,18.6695253 C41.7265184,18.5812503 42.307572,17.2169383 41.8353624,16.1579163 C41.4755838,15.350554 40.8192084,14.7988703 40.148486,14.2731009 C39.2799405,13.5921228 38.3807697,12.9505012 37.5136038,12.2679988 C35.8802527,10.9823997 35.1648339,9.35437158 35.7802375,7.21595631 C34.1926865,7.21595631 32.655212,7.24381072 31.1198068,7.20279129 C30.4701911,7.18533031 30.2414668,7.36562182 30.2500198,8.05061869 C30.2850596,10.890106 30.2629873,13.7302862 30.2653325,16.5701893 C30.2668499,18.4303376 30.4612242,18.6346033 32.3242653,18.7519799 C32.7640561,18.7796957 33.1436999,18.8894504 33.2730988,19.3844552 C33.4974087,20.2425375 33.1471487,20.8266487 32.2957093,21.0583531 C31.8905444,21.1686621 31.4464771,21.1043614 31.0716616,21.3411932 L30.105998,21.3411932 Z" id="Fill-3"></path>
                <path d="M0,6.10060275 C0.526971794,5.16085364 1.43900072,4.8084137 2.5041297,5.14819846 C3.04773976,5.32169688 3.30052963,5.7208113 3.39434711,6.25736368 C3.79548324,8.55189735 4.18823033,10.8482 4.62599862,13.136202 C4.91919571,14.6674787 5.27209484,16.1884135 5.62583287,17.7078514 C5.68777198,17.9736102 5.67798476,18.2963853 6.0085131,18.53384 C6.41230577,17.469036 6.57659121,16.3751114 6.82001331,15.3056807 C7.41745308,12.6818402 7.97126982,10.0488826 8.54703788,7.42027939 C8.78193112,6.34839932 9.34665362,5.8264072 10.4767977,5.67182351 C11.5153614,5.52962284 12.5231652,5.53615454 13.4495953,6.16401472 C13.8770171,6.45372307 14.0365488,6.82330873 14.1226763,7.27372425 C14.802888,10.8266998 15.6308866,14.3494663 16.4339978,17.8769954 C16.4818154,18.0872347 16.4724476,18.3400661 16.7529213,18.5237703 C17.2315163,17.5019666 17.3744097,16.4054566 17.5972786,15.3391557 C18.2222624,12.3510366 18.8050213,9.35461672 19.2978777,6.34241193 C19.4602057,5.35054525 20.1875358,4.92489578 21.3045371,5.06029259 C22.0903109,5.15581878 22.7752763,5.95513623 22.6175623,6.83691645 C21.8684206,11.0259168 20.8066473,15.1377615 19.5703818,19.2119127 C19.2441878,20.2870586 18.699599,21.1195789 17.4771755,21.3412486 L15.939184,21.3412486 C14.9126446,21.0658284 14.1000259,20.6132356 13.8501722,19.4667853 C13.1568177,16.2846201 12.3283996,13.1311671 11.7004796,9.93430558 C11.6279144,9.56458384 11.6905526,9.12505449 11.3597446,8.79996607 C11.0854228,8.98938553 11.0798302,9.24548281 11.0275384,9.48103244 C10.3751504,12.4185309 9.67284762,15.3466399 9.0902285,18.2970657 C8.77116518,19.9125742 8.25593805,21.2216368 6.29178316,21.3412486 L4.89360913,21.3412486 C3.69257763,21.0292236 3.23215892,20.1497567 2.93560621,19.0668544 C2.17108464,16.2742782 1.47493379,13.4668696 0.814855828,10.6495273 C0.534382117,9.45245623 0.426023629,8.21837214 0,7.05314312 L0,6.10060275 Z" id="Fill-1"></path>
            </g>
        </g>
    </g>
</svg>