<svg xmlns="http://www.w3.org/2000/svg" xmlns:xlink="http://www.w3.org/1999/xlink" width="43" height="20" viewBox="0 0 43 20">
    <defs>
        <path id="a" d="M.193.12H23.98v19.45H.193z"/>
        <path id="c" d="M0 .116h16.677V20H0z"/>
    </defs>
    <g fill="none" fill-rule="evenodd">
        <g transform="translate(18.947)">
            <mask id="b" fill="#fff">
                <use xlink:href="#a"/>
            </mask>
            <path fill="#FFF" d="M12.043 19.563c-3.813 0-7.627-.004-11.44.007-.317.001-.411-.068-.41-.4.01-6.207.01-12.413 0-18.619C.193.21.276.119.622.12c7.64.01 15.281.01 22.922 0 .339 0 .44.079.434.427-.023 1.2-.022 2.4 0 3.599.006.336-.098.404-.415.404-5.955-.009-11.91-.003-17.865-.015-.364 0-.492.07-.476.462.034.826.026 1.655.002 2.482-.01.325.08.409.407.408 5.942-.01 11.883-.002 17.824-.02.45 0 .536.133.524.546a63.993 63.993 0 0 0 0 3.185c.006.346-.093.43-.434.429-5.9-.012-11.8-.008-17.699-.008-.614 0-.614 0-.614.633 0 .703.02 1.407-.008 2.11-.013.321.09.379.39.379 5.928-.01 11.855-.007 17.782-.007.573 0 .573 0 .573.561 0 1.16-.014 2.318.01 3.476.006.337-.1.4-.413.399-3.841-.01-7.682-.007-11.523-.007" mask="url(#b)"/>
        </g>
        <g>
            <mask id="d" fill="#fff">
                <use xlink:href="#c"/>
            </mask>
            <path fill="#EE8E15" d="M0 19.978c.64-1.268 1.249-2.472 1.86-3.676C4.51 11.08 7.164 5.858 9.805.63c.184-.366.379-.52.806-.513 1.883.03 3.766.013 5.65.013.498 0 .5.002.258.452-3.334 6.17-6.681 12.334-9.982 18.523-.369.692-.758.923-1.511.894-1.647-.065-3.298-.02-5.027-.02" mask="url(#d)"/>
        </g>
    </g>
</svg>
