<?xml version="1.0" encoding="UTF-8"?>
<svg width="213px" height="20px" viewBox="0 0 213 20" version="1.1" xmlns="http://www.w3.org/2000/svg" xmlns:xlink="http://www.w3.org/1999/xlink">
    <!-- Generator: sketchtool 49.3 (51167) - http://www.bohemiancoding.com/sketch -->
    <title>9476C077-49D9-4234-8B48-8362CE086BCD</title>
    <desc>Created with sketchtool.</desc>
    <defs></defs>
    <g id="Page-1" stroke="none" stroke-width="1" fill="none" fill-rule="evenodd">
        <g id="E-VS-Home-1280px-Details" transform="translate(-70.000000, -50.000000)" fill-rule="nonzero">
            <g id="evolvice-logo-media" transform="translate(70.000000, 50.000000)">
                <path d="M11.9416476,0.487804878 C15.7434783,0.487804878 19.5453089,0.487804878 23.3471396,0.487804878 C23.6883295,0.487804878 23.7858124,0.585365854 23.7858124,0.926829268 C23.7370709,2.09756098 23.7370709,3.26829268 23.7858124,4.43902439 C23.7858124,4.7804878 23.7370709,4.87804878 23.3471396,4.87804878 C17.4006865,4.87804878 11.5029748,4.87804878 5.55652174,4.87804878 C5.16659039,4.87804878 5.06910755,4.97560976 5.06910755,5.36585366 C5.11784897,6.14634146 5.11784897,6.92682927 5.06910755,7.70731707 C5.06910755,8.09756098 5.11784897,8.19512195 5.55652174,8.19512195 C11.4542334,8.19512195 17.4006865,8.19512195 23.2983982,8.19512195 C23.6883295,8.19512195 23.7858124,8.29268293 23.7858124,8.68292683 C23.7370709,9.75609756 23.7370709,10.8292683 23.7858124,11.8536585 C23.7858124,12.2439024 23.6883295,12.3414634 23.2983982,12.3414634 C17.3519451,12.3414634 11.4542334,12.3414634 5.50778032,12.3414634 C5.11784897,12.3414634 5.02036613,12.4390244 5.02036613,12.8292683 C5.06910755,13.6097561 5.06910755,14.3902439 5.02036613,15.1219512 C5.02036613,15.4146341 5.11784897,15.4634146 5.41029748,15.4634146 C10.0407323,15.4634146 14.671167,15.4634146 19.3016018,15.4634146 C20.6663616,15.4634146 22.0311213,15.4634146 23.395881,15.4634146 C23.6395881,15.4634146 23.7370709,15.5121951 23.7370709,15.804878 C23.7370709,17.0731707 23.7370709,18.2926829 23.7370709,19.5609756 C23.7370709,19.8536585 23.6395881,19.902439 23.395881,19.902439 C15.7434783,19.902439 8.09107551,19.902439 0.38993135,19.902439 C0.0974828375,19.902439 0.0487414188,19.804878 0.0487414188,19.5121951 C0.0487414188,13.2682927 0.0487414188,7.07317073 0.0487414188,0.829268293 C0.0487414188,0.487804878 0.194965675,0.43902439 0.487414188,0.43902439 C4.33798627,0.487804878 8.13981693,0.487804878 11.9416476,0.487804878 Z" id="Shape" fill="#FFFFFF"></path>
                <path d="M200.912128,0.487804878 C204.713959,0.487804878 208.515789,0.487804878 212.31762,0.487804878 C212.65881,0.487804878 212.756293,0.585365854 212.756293,0.926829268 C212.756293,2.09756098 212.756293,3.31707317 212.756293,4.48780488 C212.756293,4.82926829 212.707551,4.92682927 212.31762,4.92682927 C206.371167,4.92682927 200.424714,4.92682927 194.478261,4.92682927 C194.08833,4.92682927 193.990847,5.02439024 193.990847,5.41463415 C194.039588,6.24390244 194.039588,7.02439024 193.990847,7.85365854 C193.990847,8.24390244 194.137071,8.29268293 194.478261,8.29268293 C198.718764,8.29268293 202.910526,8.29268293 207.15103,8.29268293 C208.905721,8.29268293 210.61167,8.29268293 212.366362,8.29268293 C212.707551,8.29268293 212.756293,8.3902439 212.756293,8.68292683 C212.756293,9.80487805 212.756293,10.8780488 212.756293,12 C212.756293,12.3414634 212.65881,12.4390244 212.31762,12.4390244 C206.419908,12.4390244 200.473455,12.4390244 194.575744,12.4390244 C194.185812,12.4390244 194.039588,12.4878049 194.039588,12.9268293 C194.08833,13.7073171 194.08833,14.4390244 194.039588,15.2195122 C194.039588,15.5121951 194.08833,15.6097561 194.380778,15.5609756 C196.330435,15.5609756 198.23135,15.5609756 200.181007,15.5609756 C204.226545,15.5609756 208.272082,15.5609756 212.31762,15.5609756 C212.65881,15.5609756 212.707551,15.6585366 212.707551,15.9512195 C212.707551,17.1707317 212.707551,18.3902439 212.707551,19.6097561 C212.707551,19.8536585 212.65881,19.9512195 212.366362,19.9512195 C204.713959,19.9512195 197.012815,19.9512195 189.360412,19.9512195 C189.116705,19.9512195 189.019222,19.902439 189.019222,19.6097561 C189.019222,13.3658537 189.019222,7.07317073 189.019222,0.829268293 C189.019222,0.487804878 189.214188,0.487804878 189.409153,0.487804878 C193.259725,0.487804878 197.110297,0.487804878 200.912128,0.487804878 Z" id="Shape" fill="#FFFFFF"></path>
                <path d="M73.7457666,0.487804878 C76.4265446,0.487804878 79.1073227,0.487804878 81.7881007,0.487804878 C85.1512586,0.487804878 87.8320366,3.12195122 87.8320366,6.48780488 C87.8320366,8.97560976 87.8320366,11.4146341 87.8320366,13.902439 C87.7832952,17.2682927 85.1025172,19.902439 81.7393593,19.902439 C76.3778032,19.902439 71.0162471,19.902439 65.6059497,19.902439 C62.1940503,19.902439 59.5132723,17.2195122 59.5132723,13.804878 C59.5132723,11.3658537 59.5132723,8.92682927 59.5132723,6.53658537 C59.5132723,3.17073171 62.1940503,0.487804878 65.5572082,0.487804878 C68.3354691,0.487804878 71.0649886,0.487804878 73.7457666,0.487804878 Z M73.8432494,15.4634146 C76.0366133,15.4634146 78.1812357,15.4634146 80.3745995,15.4634146 C81.6418764,15.4634146 82.6167048,14.6341463 82.6167048,13.3658537 C82.6654462,11.2195122 82.6654462,9.07317073 82.6167048,6.97560976 C82.5679634,5.70731707 81.6418764,4.87804878 80.3258581,4.87804878 C75.9878719,4.87804878 71.6498856,4.87804878 67.3606407,4.87804878 C65.9471396,4.87804878 65.0210526,5.80487805 65.0210526,7.2195122 C65.0210526,9.17073171 65.0210526,11.1219512 65.0210526,13.0731707 C65.0210526,14.5853659 65.9471396,15.4634146 67.4581236,15.4634146 C69.5540046,15.4634146 71.698627,15.4634146 73.8432494,15.4634146 Z" id="Shape" fill="#FFFFFF"></path>
                <path d="M173.421968,19.902439 C170.497483,19.902439 167.572998,19.902439 164.599771,19.902439 C161.675286,19.902439 159.238215,17.9512195 158.604577,15.0731707 C158.507094,14.6829268 158.458352,14.2439024 158.458352,13.8536585 C158.458352,11.4146341 158.458352,8.97560976 158.458352,6.58536585 C158.458352,3.17073171 161.13913,0.536585366 164.55103,0.536585366 C170.594966,0.536585366 176.687643,0.536585366 182.731579,0.536585366 C183.12151,0.536585366 183.170252,0.634146341 183.170252,0.975609756 C183.12151,2.14634146 183.170252,3.36585366 183.170252,4.53658537 C183.170252,4.87804878 183.12151,4.92682927 182.78032,4.92682927 C177.321281,4.92682927 171.862243,4.92682927 166.354462,4.92682927 C164.940961,4.92682927 163.819908,5.95121951 163.86865,7.36585366 C163.917391,9.31707317 163.86865,11.2195122 163.86865,13.1707317 C163.86865,14.6341463 164.794737,15.5609756 166.256979,15.5609756 C171.716018,15.5609756 177.175057,15.5609756 182.682838,15.5609756 C183.072769,15.5609756 183.218993,15.6585366 183.170252,16.0487805 C183.12151,17.2195122 183.170252,18.4390244 183.170252,19.6097561 C183.170252,19.902439 183.072769,20 182.78032,20 C179.709611,19.902439 176.59016,19.902439 173.421968,19.902439 Z" id="Shape" fill="#FFFFFF"></path>
                <path d="M127.751259,15.0731707 C128.969794,12.7804878 130.139588,10.5365854 131.358124,8.29268293 C132.674142,5.80487805 133.99016,3.26829268 135.306178,0.780487805 C135.403661,0.585365854 135.452403,0.487804878 135.744851,0.487804878 C137.791991,0.487804878 139.83913,0.487804878 141.88627,0.487804878 C141.935011,0.487804878 141.983753,0.487804878 142.032494,0.536585366 C141.642563,1.26829268 141.20389,2 140.813959,2.73170732 C137.694508,8.3902439 134.623799,14 131.504348,19.6585366 C131.358124,19.902439 131.211899,20 130.919451,20 C128.677346,20 126.386499,20 124.144394,20 C123.900686,20 123.754462,19.9512195 123.656979,19.7560976 C120.293822,13.4634146 116.979405,7.17073171 113.616247,0.87804878 C113.567506,0.780487805 113.470023,0.731707317 113.518764,0.585365854 C113.616247,0.585365854 113.762471,0.585365854 113.908696,0.585365854 C115.809611,0.585365854 117.661785,0.585365854 119.5627,0.585365854 C119.90389,0.585365854 120.050114,0.682926829 120.196339,0.975609756 C122.63341,5.6097561 125.070481,10.195122 127.507551,14.8292683 C127.605034,14.8292683 127.653776,14.9268293 127.751259,15.0731707 Z" id="Shape" fill="#FFFFFF"></path>
                <path d="M94.2171625,10.195122 C94.2171625,7.07317073 94.2171625,4 94.2171625,0.87804878 C94.2171625,0.585365854 94.2659039,0.43902439 94.6070938,0.43902439 C96.3130435,0.43902439 98.0677346,0.43902439 99.7736842,0.43902439 C100.114874,0.43902439 100.163616,0.536585366 100.163616,0.829268293 C100.163616,5.41463415 100.163616,10 100.163616,14.5853659 C100.163616,14.9268293 100.261098,15.0243902 100.602288,15.0243902 C104.745309,15.0243902 108.88833,15.0243902 113.03135,15.0243902 C113.470023,15.0243902 113.518764,15.1219512 113.518764,15.5121951 C113.470023,16.8292683 113.518764,18.195122 113.518764,19.5121951 C113.518764,19.7560976 113.470023,19.8536585 113.226316,19.8536585 C107.036156,19.8536585 100.797254,19.8536585 94.6070938,19.8536585 C94.2659039,19.8536585 94.2659039,19.6585366 94.2659039,19.4634146 C94.2171625,16.3902439 94.2171625,13.3170732 94.2171625,10.195122 Z" id="Shape" fill="#FFFFFF"></path>
                <path d="M56.7837529,0.487804878 C56.2963387,1.36585366 55.8576659,2.14634146 55.4189931,2.97560976 C52.3482838,8.53658537 49.3263158,14.0487805 46.2556064,19.6097561 C46.1093822,19.8536585 45.9631579,19.9512195 45.6707094,19.9512195 C43.8185355,19.9512195 41.9663616,19.9512195 40.0167048,19.9512195 C40.3091533,19.3658537 40.6016018,18.8292683 40.8940503,18.2926829 C43.8672769,12.5365854 46.8405034,6.82926829 49.81373,1.07317073 C50.0086957,0.634146341 50.2524027,0.487804878 50.7398169,0.487804878 C52.6894737,0.487804878 54.6878719,0.487804878 56.7837529,0.487804878 Z" id="Shape" fill="#EE8E15"></path>
                <path d="M146.614188,10.1463415 C146.614188,7.07317073 146.614188,4 146.614188,0.926829268 C146.614188,0.536585366 146.71167,0.487804878 147.05286,0.487804878 C148.75881,0.487804878 150.46476,0.487804878 152.170709,0.487804878 C152.414416,0.487804878 152.511899,0.536585366 152.511899,0.829268293 C152.511899,7.07317073 152.511899,13.3170732 152.511899,19.5609756 C152.511899,19.8536585 152.414416,19.902439 152.121968,19.902439 C150.416018,19.902439 148.661327,19.902439 146.955378,19.902439 C146.662929,19.902439 146.565446,19.804878 146.565446,19.5121951 C146.614188,16.3902439 146.614188,13.2682927 146.614188,10.1463415 Z" id="Shape" fill="#FFFFFF"></path>
                <path d="M38.5544622,20 C35.0938215,13.4634146 31.6819222,7.02439024 28.2212815,0.536585366 C28.3675057,0.43902439 28.4649886,0.487804878 28.6112128,0.487804878 C30.5121281,0.487804878 32.4617849,0.487804878 34.3627002,0.487804878 C34.6551487,0.487804878 34.801373,0.585365854 34.9475973,0.829268293 C37.1897025,5.12195122 39.4318078,9.46341463 41.7226545,13.7560976 C41.8201373,13.902439 41.8688787,14.0487805 41.7713959,14.195122 C40.6990847,16.097561 39.6267735,18 38.5544622,20 Z" id="Shape" fill="#FFFFFF"></path>
            </g>
        </g>
    </g>
</svg>