<svg xmlns="http://www.w3.org/2000/svg" xmlns:xlink="http://www.w3.org/1999/xlink" width="43" height="20" viewBox="0 0 43 20">
    <defs>
        <path id="a" d="M.192.12h23.7v19.45H.192z"/>
        <path id="c" d="M0 .116h16.616V20H0z"/>
    </defs>
    <g fill="none" fill-rule="evenodd">
        <g transform="translate(18.878)">
            <mask id="b" fill="#fff">
                <use xlink:href="#a"/>
            </mask>
            <path fill="#000" d="M11.999 19.563c-3.8 0-7.599-.004-11.398.007-.316.001-.41-.068-.409-.4C.203 12.962.203 6.756.192.55.192.21.275.119.62.12c7.614.01 15.226.01 22.838 0 .338 0 .44.079.433.427-.022 1.2-.022 2.4 0 3.599.007.336-.097.404-.413.404-5.934-.009-11.867-.003-17.8-.015-.362 0-.49.07-.474.462.034.826.026 1.655.002 2.482-.01.325.08.409.406.408 5.92-.01 11.839-.002 17.758-.02.448 0 .534.133.523.546a64.228 64.228 0 0 0-.002 3.185c.008.346-.091.43-.431.429-5.878-.012-11.756-.008-17.634-.008-.612 0-.612 0-.612.633 0 .703.02 1.407-.009 2.11-.012.321.09.379.39.379 5.905-.01 11.81-.007 17.717-.007.57 0 .57 0 .57.561 0 1.16-.014 2.318.01 3.476.006.337-.099.4-.411.399-3.828-.01-7.654-.007-11.481-.007" mask="url(#b)"/>
        </g>
        <g>
            <mask id="d" fill="#fff">
                <use xlink:href="#c"/>
            </mask>
            <path fill="#EE8E15" d="M0 19.978c.638-1.268 1.244-2.472 1.852-3.676C4.494 11.08 7.14 5.858 9.77.63c.184-.366.378-.52.804-.513 1.876.03 3.752.013 5.628.013.496 0 .5.002.257.452-3.32 6.17-6.656 12.334-9.945 18.523-.367.692-.755.923-1.506.894-1.64-.065-3.285-.02-5.008-.02" mask="url(#d)"/>
        </g>
    </g>
</svg>
