<svg xmlns="http://www.w3.org/2000/svg" width="213" height="20" viewBox="0 0 213 20">
    <g fill="none" fill-rule="nonzero">
        <path fill="#000" fill-opacity=".89" d="M11.942.488h11.405c.341 0 .439.097.439.439a42.198 42.198 0 0 0 0 3.512c0 .341-.049.439-.439.439H5.557c-.39 0-.488.098-.488.488.049.78.049 1.56 0 2.341 0 .39.049.488.488.488h17.741c.39 0 .488.098.488.488a34.39 34.39 0 0 0 0 3.17c0 .39-.098.488-.488.488H5.508c-.39 0-.488.098-.488.488.05.78.05 1.561 0 2.293 0 .293.098.341.39.341h17.986c.244 0 .341.05.341.342v3.756c0 .293-.097.341-.341.341H.39c-.293 0-.341-.097-.341-.39V.83c0-.341.146-.39.438-.39C4.338.488 8.14.488 11.942.488zM200.912.488h11.406c.34 0 .438.097.438.439v3.56c0 .342-.048.44-.438.44h-17.84c-.39 0-.487.097-.487.488.049.829.049 1.61 0 2.439 0 .39.146.439.487.439H212.366c.342 0 .39.097.39.39V12c0 .341-.097.439-.438.439h-17.742c-.39 0-.536.049-.536.488.048.78.048 1.512 0 2.293 0 .292.048.39.34.341H212.319c.34 0 .39.098.39.39v3.659c0 .244-.05.341-.342.341H189.36c-.243 0-.34-.049-.34-.341V.83c0-.342.194-.342.39-.342h11.502zM73.746.488h8.042c3.363 0 6.044 2.634 6.044 6v7.414c-.049 3.366-2.73 6-6.093 6H65.606c-3.412 0-6.093-2.682-6.093-6.097V6.537a6.014 6.014 0 0 1 6.044-6.05h8.189zm.097 14.975h6.532c1.267 0 2.242-.829 2.242-2.097.048-2.146.048-4.293 0-6.39-.049-1.269-.975-2.098-2.291-2.098H67.36c-1.414 0-2.34.927-2.34 2.342v5.853c0 1.512.926 2.39 2.437 2.39h6.385zM173.422 19.902H164.6c-2.925 0-5.362-1.95-5.995-4.829a5.213 5.213 0 0 1-.147-1.22V6.586c0-3.414 2.681-6.048 6.093-6.048h18.18c.39 0 .44.097.44.439-.05 1.17 0 2.39 0 3.56 0 .342-.05.39-.39.39h-16.427c-1.413 0-2.534 1.025-2.485 2.44.048 1.951 0 3.854 0 5.805 0 1.463.926 2.39 2.388 2.39h16.426c.39 0 .536.098.487.488-.048 1.17 0 2.39 0 3.56 0 .293-.097.391-.39.391-3.07-.098-6.19-.098-9.358-.098zM127.751 15.073c1.219-2.293 2.389-4.536 3.607-6.78 1.316-2.488 2.632-5.025 3.948-7.513.098-.195.146-.292.439-.292h6.141c.049 0 .098 0 .146.049-.39.731-.828 1.463-1.218 2.195-3.12 5.658-6.19 11.268-9.31 16.927-.146.243-.292.341-.585.341h-6.775c-.243 0-.39-.049-.487-.244-3.363-6.293-6.678-12.585-10.04-18.878-.05-.098-.147-.146-.098-.293h6.044c.34 0 .487.098.633.39 2.437 4.635 4.874 9.22 7.312 13.854.097 0 .146.098.243.244zM94.217 10.195V.878c0-.293.049-.439.39-.439h5.167c.34 0 .39.098.39.39v13.756c0 .342.097.44.438.44h12.43c.438 0 .487.097.487.487-.049 1.317 0 2.683 0 4 0 .244-.049.342-.293.342H94.607c-.341 0-.341-.195-.341-.39-.049-3.074-.049-6.147-.049-9.269z"/>
        <path fill="#EE8E15" d="M56.784.488c-.488.878-.926 1.658-1.365 2.488-3.07 5.56-6.093 11.073-9.163 16.634-.147.244-.293.341-.585.341h-5.654c.292-.585.585-1.122.877-1.658 2.973-5.756 5.947-11.464 8.92-17.22.195-.439.438-.585.926-.585h6.044z"/>
        <path fill="#000" fill-opacity=".89" d="M146.614 10.146V.926c0-.39.098-.438.439-.438h5.118c.243 0 .34.049.34.341v18.732c0 .293-.097.341-.389.341h-5.167c-.292 0-.39-.097-.39-.39.05-3.122.05-6.244.05-9.366zM38.554 20A7076.433 7076.433 0 0 0 28.221.537c.147-.098.244-.05.39-.05h5.752c.292 0 .438.098.585.342 2.242 4.293 4.484 8.634 6.775 12.927.097.146.146.293.048.44A310.443 310.443 0 0 0 38.554 20z"/>
    </g>
</svg>
