<?xml version="1.0" encoding="UTF-8"?>
<svg width="80px" height="76px" viewBox="0 0 80 76" version="1.1" xmlns="http://www.w3.org/2000/svg" xmlns:xlink="http://www.w3.org/1999/xlink">
    <!-- Generator: sketchtool 49.3 (51167) - http://www.bohemiancoding.com/sketch -->
    <title>70E2A644-A719-4CE2-9666-8974AD3A87E0</title>
    <desc>Created with sketchtool.</desc>
    <defs>
        <linearGradient x1="118.94538%" y1="0%" x2="50%" y2="100%" id="linearGradient-1">
            <stop stop-color="#EE8B18" offset="0%"></stop>
            <stop stop-color="#E7306D" offset="100%"></stop>
        </linearGradient>
    </defs>
    <g id="Page-1" stroke="none" stroke-width="1" fill="none" fill-rule="evenodd">
        <g id="E-VS-Home-1280px-Details" transform="translate(-1083.000000, -1451.000000)">
            <g id="iMac" transform="translate(1085.000000, 1453.000000)">
                <path d="M52.1176552,68.0727273 L23.8823448,68.0727273 C23.5888276,68.0727273 23.4748276,67.6708364 23.7198621,67.5006545 L26.0850345,65.8341818 C28.6362759,64.0354909 29.8431034,60.7405091 29.0988276,57.6 L46.9024828,57.6 L46.9024828,57.6026182 C46.1582069,60.7431273 47.3650345,64.0394182 49.9188966,65.8368 L52.2814483,67.5006545 C52.5251724,67.6721455 52.4098621,68.0727273 52.1176552,68.0727273 L52.1176552,68.0727273 Z" id="Fill-49" fill="#FFFFFF" fill-rule="evenodd"></path>
                <path d="M52.1176552,68.0727273 L23.8823448,68.0727273 C23.5888276,68.0727273 23.4748276,67.6708364 23.7198621,67.5006545 L26.0850345,65.8341818 C28.6362759,64.0354909 29.8431034,60.7405091 29.0988276,57.6 L46.9024828,57.6 L46.9024828,57.6026182 C46.1582069,60.7431273 47.3650345,64.0394182 49.9188966,65.8368 L52.2814483,67.5006545 C52.5251724,67.6721455 52.4098621,68.0727273 52.1176552,68.0727273 L52.1176552,68.0727273 Z" id="Stroke-50" stroke="url(#linearGradient-1)" stroke-width="3" stroke-linecap="round"></path>
                <path d="M71.4164138,57.6 L4.58358621,57.6 C2.052,57.6 0,55.5499636 0,53.0194909 L0,4.5792 C0,2.05003636 2.052,0 4.58358621,0 L71.4164138,0 C73.948,0 76,2.05003636 76,4.5792 L76,53.0194909 C76,55.5499636 73.948,57.6 71.4164138,57.6 L71.4164138,57.6 Z" id="Fill-51" fill="#FFFFFF" fill-rule="evenodd"></path>
                <path d="M71.4164138,57.6 L4.58358621,57.6 C2.052,57.6 0,55.5499636 0,53.0194909 L0,4.5792 C0,2.05003636 2.052,0 4.58358621,0 L71.4164138,0 C73.948,0 76,2.05003636 76,4.5792 L76,53.0194909 C76,55.5499636 73.948,57.6 71.4164138,57.6 L71.4164138,57.6 Z" id="Stroke-52" stroke="url(#linearGradient-1)" stroke-width="3" stroke-linecap="round"></path>
                <path d="M76,45.8181818 L0,45.8181818 L0,4.5792 C0,2.05003636 2.052,0 4.58358621,0 L71.4164138,0 C73.948,0 76,2.05003636 76,4.5792 L76,45.8181818 L76,45.8181818 Z" id="Fill-53" fill-opacity="0.2" fill="#EE8C18" fill-rule="evenodd"></path>
                <path d="M76,45.8181818 L0,45.8181818 L0,4.5792 C0,2.05003636 2.052,0 4.58358621,0 L71.4164138,0 C73.948,0 76,2.05003636 76,4.5792 L76,45.8181818 L76,45.8181818 Z" id="Stroke-54" stroke="url(#linearGradient-1)" stroke-width="2" stroke-linecap="round"></path>
                <path d="M5.24137931,10.4727273 L10.4827586,5.23636364 M5.24137931,17.0181818 L7.86206897,14.4 M13.1034483,9.16363636 L17.0344828,5.23636364 M5.24137931,23.5636364 L17.0344828,11.7818182 M22.2758621,6.54545455 L23.5862069,5.23636364" id="Stroke-55" stroke="url(#linearGradient-1)" stroke-width="2" stroke-linecap="round"></path>
                <path d="M53.0689655,72 L22.9310345,72 C21.85,72 20.9655172,71.1163636 20.9655172,70.0363636 C20.9655172,68.9563636 21.85,68.0727273 22.9310345,68.0727273 L53.0689655,68.0727273 C54.15,68.0727273 55.0344828,68.9563636 55.0344828,70.0363636 C55.0344828,71.1163636 54.15,72 53.0689655,72 L53.0689655,72 Z" id="Fill-56" fill="#FFFFFF" fill-rule="evenodd"></path>
                <path d="M53.0689655,72 L22.9310345,72 C21.85,72 20.9655172,71.1163636 20.9655172,70.0363636 C20.9655172,68.9563636 21.85,68.0727273 22.9310345,68.0727273 L53.0689655,68.0727273 C54.15,68.0727273 55.0344828,68.9563636 55.0344828,70.0363636 C55.0344828,71.1163636 54.15,72 53.0689655,72 L53.0689655,72 Z" id="Stroke-57" stroke="url(#linearGradient-1)" stroke-width="3" stroke-linecap="round"></path>
            </g>
        </g>
    </g>
</svg>