<?xml version="1.0" encoding="UTF-8"?>
<svg width="44px" height="76px" viewBox="0 0 44 76" version="1.1" xmlns="http://www.w3.org/2000/svg" xmlns:xlink="http://www.w3.org/1999/xlink">
    <!-- Generator: sketchtool 49.3 (51167) - http://www.bohemiancoding.com/sketch -->
    <title>CD4657FA-63DB-4B84-92F9-FD2F2B5BCBD4</title>
    <desc>Created with sketchtool.</desc>
    <defs>
        <linearGradient x1="118.94538%" y1="0%" x2="50%" y2="100%" id="linearGradient-1">
            <stop stop-color="#EE8B18" offset="0%"></stop>
            <stop stop-color="#E7306D" offset="100%"></stop>
        </linearGradient>
    </defs>
    <g id="Page-1" stroke="none" stroke-width="1" fill="none" fill-rule="evenodd">
        <g id="E-VS-Home-1280px-Details" transform="translate(-719.000000, -1451.000000)">
            <g id="Iphone-6-Plus" transform="translate(720.000000, 1453.000000)">
                <path d="M37.3199394,72 L4.92248485,72 C2.88987879,72 1.24242424,70.353931 1.24242424,68.3230345 L1.24242424,3.67696552 C1.24242424,1.64606897 2.88987879,0 4.92248485,0 L37.3199394,0 C39.3525455,0 41,1.64606897 41,3.67696552 L41,68.3230345 C41,70.353931 39.3525455,72 37.3199394,72 L37.3199394,72 Z" id="Fill-1111" fill-opacity="0.2" fill="#EE8C18" fill-rule="evenodd"></path>
                <path d="M37.3199394,72 L4.92248485,72 C2.88987879,72 1.24242424,70.353931 1.24242424,68.3230345 L1.24242424,3.67696552 C1.24242424,1.64606897 2.88987879,0 4.92248485,0 L37.3199394,0 C39.3525455,0 41,1.64606897 41,3.67696552 L41,68.3230345 C41,70.353931 39.3525455,72 37.3199394,72 L37.3199394,72 Z" id="Stroke-1112" stroke="url(#linearGradient-1)" stroke-width="3" stroke-linecap="round"></path>
                <polygon id="Fill-1568" fill="#FFFFFF" fill-rule="evenodd" points="1.24242424 7.44827586 41 7.44827586 41 62.0689655 1.24242424 62.0689655"></polygon>
                <polygon id="Stroke-1569" stroke="url(#linearGradient-1)" stroke-width="3" stroke-linecap="round" points="1.24242424 7.44827586 41 7.44827586 41 62.0689655 1.24242424 62.0689655"></polygon>
                <path d="M19.8787879,3.72413793 L26.0909091,3.72413793 M14.9090909,3.72413793 L16.1515152,3.72413793 M0,11.1724138 L0,12.4137931 M0,16.137931 L0,17.3793103 M0,21.1034483 L0,22.3448276" id="Stroke-1570" stroke="url(#linearGradient-1)" stroke-width="2" stroke-linecap="round"></path>
                <path d="M24.8484848,67.0344828 C24.8484848,69.0914483 23.1799091,70.7586207 21.1212121,70.7586207 C19.0625152,70.7586207 17.3939394,69.0914483 17.3939394,67.0344828 C17.3939394,64.9775172 19.0625152,63.3103448 21.1212121,63.3103448 C23.1799091,63.3103448 24.8484848,64.9775172 24.8484848,67.0344828 L24.8484848,67.0344828 Z" id="Fill-1571" fill-opacity="0.2" fill="#EE8C18" fill-rule="evenodd"></path>
                <path d="M24.8484848,67.0344828 C24.8484848,69.0914483 23.1799091,70.7586207 21.1212121,70.7586207 C19.0625152,70.7586207 17.3939394,69.0914483 17.3939394,67.0344828 C17.3939394,64.9775172 19.0625152,63.3103448 21.1212121,63.3103448 C23.1799091,63.3103448 24.8484848,64.9775172 24.8484848,67.0344828 L24.8484848,67.0344828 Z" id="Stroke-1572" stroke="url(#linearGradient-1)" stroke-width="2" stroke-linecap="round"></path>
                <path d="M34.6002727,57.1034483 L30.0057879,57.1034483 C29.9026667,57.1034483 29.8181818,57.0190345 29.8181818,56.916 L29.8181818,52.3253793 C29.8181818,52.2223448 29.9026667,52.137931 30.0057879,52.137931 L34.6002727,52.137931 C34.7033939,52.137931 34.7878788,52.2223448 34.7878788,52.3253793 L34.7878788,56.916 C34.7878788,57.0190345 34.7033939,57.1034483 34.6002727,57.1034483 L34.6002727,57.1034483 Z" id="Fill-1573" fill-opacity="0.2" fill="#EE8C18" fill-rule="evenodd"></path>
                <path d="M34.6002727,57.1034483 L30.0057879,57.1034483 C29.9026667,57.1034483 29.8181818,57.0190345 29.8181818,56.916 L29.8181818,52.3253793 C29.8181818,52.2223448 29.9026667,52.137931 30.0057879,52.137931 L34.6002727,52.137931 C34.7033939,52.137931 34.7878788,52.2223448 34.7878788,52.3253793 L34.7878788,56.916 C34.7878788,57.0190345 34.7033939,57.1034483 34.6002727,57.1034483 L34.6002727,57.1034483 Z" id="Stroke-1574" stroke="url(#linearGradient-1)" stroke-width="2" stroke-linecap="round"></path>
                <path d="M23.4184545,57.1034483 L18.8239697,57.1034483 C18.7208485,57.1034483 18.6363636,57.0190345 18.6363636,56.916 L18.6363636,52.3253793 C18.6363636,52.2223448 18.7208485,52.137931 18.8239697,52.137931 L23.4184545,52.137931 C23.5215758,52.137931 23.6060606,52.2223448 23.6060606,52.3253793 L23.6060606,56.916 C23.6060606,57.0190345 23.5215758,57.1034483 23.4184545,57.1034483 L23.4184545,57.1034483 Z" id="Fill-1575" fill-opacity="0.2" fill="#EE8C18" fill-rule="evenodd"></path>
                <path d="M23.4184545,57.1034483 L18.8239697,57.1034483 C18.7208485,57.1034483 18.6363636,57.0190345 18.6363636,56.916 L18.6363636,52.3253793 C18.6363636,52.2223448 18.7208485,52.137931 18.8239697,52.137931 L23.4184545,52.137931 C23.5215758,52.137931 23.6060606,52.2223448 23.6060606,52.3253793 L23.6060606,56.916 C23.6060606,57.0190345 23.5215758,57.1034483 23.4184545,57.1034483 L23.4184545,57.1034483 Z" id="Stroke-1576" stroke="url(#linearGradient-1)" stroke-width="2" stroke-linecap="round"></path>
                <path d="M12.2366364,57.1034483 L7.64215152,57.1034483 C7.5390303,57.1034483 7.45454545,57.0190345 7.45454545,56.916 L7.45454545,52.3253793 C7.45454545,52.2223448 7.5390303,52.137931 7.64215152,52.137931 L12.2366364,52.137931 C12.3397576,52.137931 12.4242424,52.2223448 12.4242424,52.3253793 L12.4242424,56.916 C12.4242424,57.0190345 12.3397576,57.1034483 12.2366364,57.1034483 L12.2366364,57.1034483 Z" id="Fill-1577" fill-opacity="0.2" fill="#EE8C18" fill-rule="evenodd"></path>
                <path d="M12.2366364,57.1034483 L7.64215152,57.1034483 C7.5390303,57.1034483 7.45454545,57.0190345 7.45454545,56.916 L7.45454545,52.3253793 C7.45454545,52.2223448 7.5390303,52.137931 7.64215152,52.137931 L12.2366364,52.137931 C12.3397576,52.137931 12.4242424,52.2223448 12.4242424,52.3253793 L12.4242424,56.916 C12.4242424,57.0190345 12.3397576,57.1034483 12.2366364,57.1034483 L12.2366364,57.1034483 Z" id="Stroke-1578" stroke="url(#linearGradient-1)" stroke-width="2" stroke-linecap="round"></path>
            </g>
        </g>
    </g>
</svg>