<?xml version="1.0" encoding="UTF-8"?>
<svg width="76px" height="76px" viewBox="0 0 76 76" version="1.1" xmlns="http://www.w3.org/2000/svg" xmlns:xlink="http://www.w3.org/1999/xlink">
    <!-- Generator: sketchtool 49.3 (51167) - http://www.bohemiancoding.com/sketch -->
    <title>5FF13F53-7324-4ED5-B173-A7C702B8C41E</title>
    <desc>Created with sketchtool.</desc>
    <defs>
        <linearGradient x1="118.94538%" y1="0%" x2="50%" y2="100%" id="linearGradient-1">
            <stop stop-color="#EE8B18" offset="0%"></stop>
            <stop stop-color="#E7306D" offset="100%"></stop>
        </linearGradient>
        <linearGradient x1="0%" y1="100%" x2="100%" y2="0%" id="linearGradient-2">
            <stop stop-color="#E72D70" offset="0%"></stop>
            <stop stop-color="#EE8E15" offset="100%"></stop>
        </linearGradient>
    </defs>
    <g id="Page-1" stroke="none" stroke-width="1" fill="none" fill-rule="evenodd">
        <g id="E-VS-Home-1280px-Details" transform="translate(-509.000000, -1451.000000)">
            <g id="Hero-Image-Header" transform="translate(511.000000, 1453.000000)">
                <polygon id="Fill-1" fill-opacity="0.2" fill="#EE8C18" fill-rule="evenodd" points="0 0 72 0 72 14.8965517 0 14.8965517"></polygon>
                <polygon id="Stroke-2" stroke="url(#linearGradient-1)" stroke-width="3" stroke-linecap="round" points="0 0 72 0 72 14.8965517 0 14.8965517"></polygon>
                <polygon id="Fill-3" fill="#FFFFFF" fill-rule="evenodd" points="0 14.8965517 72 14.8965517 72 72 0 72"></polygon>
                <polygon id="Stroke-4" stroke="url(#linearGradient-1)" stroke-width="3" stroke-linecap="round" points="0 14.8965517 72 14.8965517 72 72 0 72"></polygon>
                <path d="M11.1724138,7.44827586 C11.1724138,9.50524138 9.50524138,11.1724138 7.44827586,11.1724138 C5.39131034,11.1724138 3.72413793,9.50524138 3.72413793,7.44827586 C3.72413793,5.39131034 5.39131034,3.72413793 7.44827586,3.72413793 C9.50524138,3.72413793 11.1724138,5.39131034 11.1724138,7.44827586 L11.1724138,7.44827586 Z" id="Fill-5" fill="#FFFFFF" fill-rule="evenodd"></path>
                <path d="M11.1724138,7.44827586 C11.1724138,9.50524138 9.50524138,11.1724138 7.44827586,11.1724138 C5.39131034,11.1724138 3.72413793,9.50524138 3.72413793,7.44827586 C3.72413793,5.39131034 5.39131034,3.72413793 7.44827586,3.72413793 C9.50524138,3.72413793 11.1724138,5.39131034 11.1724138,7.44827586 L11.1724138,7.44827586 Z" id="Stroke-6" stroke="url(#linearGradient-1)" stroke-width="2" stroke-linecap="round"></path>
                <path d="M22.3448276,7.44827586 C22.3448276,9.50524138 20.6776552,11.1724138 18.6206897,11.1724138 C16.5637241,11.1724138 14.8965517,9.50524138 14.8965517,7.44827586 C14.8965517,5.39131034 16.5637241,3.72413793 18.6206897,3.72413793 C20.6776552,3.72413793 22.3448276,5.39131034 22.3448276,7.44827586 L22.3448276,7.44827586 Z" id="Fill-7" fill="#FFFFFF" fill-rule="evenodd"></path>
                <path d="M22.3448276,7.44827586 C22.3448276,9.50524138 20.6776552,11.1724138 18.6206897,11.1724138 C16.5637241,11.1724138 14.8965517,9.50524138 14.8965517,7.44827586 C14.8965517,5.39131034 16.5637241,3.72413793 18.6206897,3.72413793 C20.6776552,3.72413793 22.3448276,5.39131034 22.3448276,7.44827586 L22.3448276,7.44827586 Z" id="Stroke-8" stroke="url(#linearGradient-1)" stroke-width="2" stroke-linecap="round"></path>
                <path d="M33.5172414,7.44827586 C33.5172414,9.50524138 31.850069,11.1724138 29.7931034,11.1724138 C27.7361379,11.1724138 26.0689655,9.50524138 26.0689655,7.44827586 C26.0689655,5.39131034 27.7361379,3.72413793 29.7931034,3.72413793 C31.850069,3.72413793 33.5172414,5.39131034 33.5172414,7.44827586 L33.5172414,7.44827586 Z" id="Fill-9" fill="#FFFFFF" fill-rule="evenodd"></path>
                <path d="M33.5172414,7.44827586 C33.5172414,9.50524138 31.850069,11.1724138 29.7931034,11.1724138 C27.7361379,11.1724138 26.0689655,9.50524138 26.0689655,7.44827586 C26.0689655,5.39131034 27.7361379,3.72413793 29.7931034,3.72413793 C31.850069,3.72413793 33.5172414,5.39131034 33.5172414,7.44827586 L33.5172414,7.44827586 Z" id="Stroke-10" stroke="url(#linearGradient-1)" stroke-width="2" stroke-linecap="round"></path>
                <polygon id="Fill-148" fill-opacity="0.2" fill="#EE8C18" fill-rule="evenodd" points="7.44827586 31.0344828 22.3448276 31.0344828 22.3448276 45.9310345 7.44827586 45.9310345"></polygon>
                <polygon id="Stroke-149" stroke="url(#linearGradient-1)" stroke-width="2" stroke-linecap="round" points="7.44827586 31.0344828 22.3448276 31.0344828 22.3448276 45.9310345 7.44827586 45.9310345"></polygon>
                <polygon id="Fill-150" fill-opacity="0.2" fill="#EE8C18" fill-rule="evenodd" points="49.6551724 31.0344828 64.5517241 31.0344828 64.5517241 45.9310345 49.6551724 45.9310345"></polygon>
                <polygon id="Stroke-151" stroke="url(#linearGradient-1)" stroke-width="2" stroke-linecap="round" points="49.6551724 31.0344828 64.5517241 31.0344828 64.5517241 45.9310345 49.6551724 45.9310345"></polygon>
                <polygon id="Fill-152" fill-opacity="0.2" fill="#EE8C18" fill-rule="evenodd" points="28.5517241 31.0344828 43.4482759 31.0344828 43.4482759 45.9310345 28.5517241 45.9310345"></polygon>
                <polygon id="Stroke-153" stroke="url(#linearGradient-1)" stroke-width="2" stroke-linecap="round" points="28.5517241 31.0344828 43.4482759 31.0344828 43.4482759 45.9310345 28.5517241 45.9310345"></polygon>
                <path d="M0,14.8965517 L0,38.4827586 L7.44827586,38.4827586 L7.44827586,31.0344828 L22.3448276,31.0344828 L22.3448276,38.4827586 L28.5517241,38.4827586 L28.5517241,31.0344828 L43.4482759,31.0344828 L43.4482759,38.4827586 L49.6551724,38.4827586 L49.6551724,31.0344828 L64.5517241,31.0344828 L64.5517241,38.4827586 L72,38.4827586 L72,14.8965517 L0,14.8965517 L0,14.8965517 Z M7.44827586,53.3793103 L22.3448276,53.3793103 L7.44827586,53.3793103 Z M7.44827586,58.3448276 L22.3448276,58.3448276 L7.44827586,58.3448276 Z M7.44827586,63.3103448 L22.3448276,63.3103448 L7.44827586,63.3103448 Z M28.5517241,53.3793103 L43.4482759,53.3793103 L28.5517241,53.3793103 Z M28.5517241,58.3448276 L43.4482759,58.3448276 L28.5517241,58.3448276 Z M28.5517241,63.3103448 L43.4482759,63.3103448 L28.5517241,63.3103448 Z M49.6551724,53.3793103 L64.5517241,53.3793103 L49.6551724,53.3793103 Z M49.6551724,58.3448276 L64.5517241,58.3448276 L49.6551724,58.3448276 Z M49.6551724,63.3103448 L64.5517241,63.3103448 L49.6551724,63.3103448 Z" id="Stroke-154" stroke="url(#linearGradient-1)" stroke-width="2" stroke-linecap="round"></path>
                <path d="M65.7931034,22.3448276 C65.1078621,22.3448276 64.5517241,21.7886897 64.5517241,21.1034483 C64.5517241,20.4182069 65.1078621,19.862069 65.7931034,19.862069 C66.4783448,19.862069 67.0344828,20.4182069 67.0344828,21.1034483 C67.0344828,21.7886897 66.4783448,22.3448276 65.7931034,22.3448276" id="Fill-462" fill="url(#linearGradient-2)" fill-rule="evenodd"></path>
                <path d="M69.5172414,18.6206897 C68.832,18.6206897 68.2758621,18.0645517 68.2758621,17.3793103 C68.2758621,16.694069 68.832,16.137931 69.5172414,16.137931 C70.2024828,16.137931 70.7586207,16.694069 70.7586207,17.3793103 C70.7586207,18.0645517 70.2024828,18.6206897 69.5172414,18.6206897" id="Fill-463" fill="url(#linearGradient-2)" fill-rule="evenodd"></path>
                <path d="M69.5172414,26.0689655 C68.832,26.0689655 68.2758621,25.5128276 68.2758621,24.8275862 C68.2758621,24.1423448 68.832,23.5862069 69.5172414,23.5862069 C70.2024828,23.5862069 70.7586207,24.1423448 70.7586207,24.8275862 C70.7586207,25.5128276 70.2024828,26.0689655 69.5172414,26.0689655" id="Fill-464" fill="url(#linearGradient-2)" fill-rule="evenodd"></path>
                <path d="M62.0689655,18.6206897 C61.3837241,18.6206897 60.8275862,18.0645517 60.8275862,17.3793103 C60.8275862,16.694069 61.3837241,16.137931 62.0689655,16.137931 C62.7542069,16.137931 63.3103448,16.694069 63.3103448,17.3793103 C63.3103448,18.0645517 62.7542069,18.6206897 62.0689655,18.6206897" id="Fill-465" fill="url(#linearGradient-2)" fill-rule="evenodd"></path>
                <path d="M62.0689655,26.0689655 C61.3837241,26.0689655 60.8275862,25.5128276 60.8275862,24.8275862 C60.8275862,24.1423448 61.3837241,23.5862069 62.0689655,23.5862069 C62.7542069,23.5862069 63.3103448,24.1423448 63.3103448,24.8275862 C63.3103448,25.5128276 62.7542069,26.0689655 62.0689655,26.0689655" id="Fill-466" fill="url(#linearGradient-2)" fill-rule="evenodd"></path>
                <path d="M65.7931034,29.7931034 C65.1078621,29.7931034 64.5517241,29.2369655 64.5517241,28.5517241 C64.5517241,27.8664828 65.1078621,27.3103448 65.7931034,27.3103448 C66.4783448,27.3103448 67.0344828,27.8664828 67.0344828,28.5517241 C67.0344828,29.2369655 66.4783448,29.7931034 65.7931034,29.7931034" id="Fill-467" fill="url(#linearGradient-2)" fill-rule="evenodd"></path>
                <path d="M69.5172414,33.5172414 C68.832,33.5172414 68.2758621,32.9611034 68.2758621,32.2758621 C68.2758621,31.5906207 68.832,31.0344828 69.5172414,31.0344828 C70.2024828,31.0344828 70.7586207,31.5906207 70.7586207,32.2758621 C70.7586207,32.9611034 70.2024828,33.5172414 69.5172414,33.5172414" id="Fill-468" fill="url(#linearGradient-2)" fill-rule="evenodd"></path>
                <path d="M58.3448276,22.3448276 C57.6595862,22.3448276 57.1034483,21.7886897 57.1034483,21.1034483 C57.1034483,20.4182069 57.6595862,19.862069 58.3448276,19.862069 C59.030069,19.862069 59.5862069,20.4182069 59.5862069,21.1034483 C59.5862069,21.7886897 59.030069,22.3448276 58.3448276,22.3448276" id="Fill-469" fill="url(#linearGradient-2)" fill-rule="evenodd"></path>
                <path d="M54.6206897,18.6206897 C53.9354483,18.6206897 53.3793103,18.0645517 53.3793103,17.3793103 C53.3793103,16.694069 53.9354483,16.137931 54.6206897,16.137931 C55.305931,16.137931 55.862069,16.694069 55.862069,17.3793103 C55.862069,18.0645517 55.305931,18.6206897 54.6206897,18.6206897" id="Fill-470" fill="url(#linearGradient-2)" fill-rule="evenodd"></path>
                <path d="M54.6206897,26.0689655 C53.9354483,26.0689655 53.3793103,25.5128276 53.3793103,24.8275862 C53.3793103,24.1423448 53.9354483,23.5862069 54.6206897,23.5862069 C55.305931,23.5862069 55.862069,24.1423448 55.862069,24.8275862 C55.862069,25.5128276 55.305931,26.0689655 54.6206897,26.0689655" id="Fill-471" fill="url(#linearGradient-2)" fill-rule="evenodd"></path>
                <path d="M58.3448276,29.7931034 C57.6595862,29.7931034 57.1034483,29.2369655 57.1034483,28.5517241 C57.1034483,27.8664828 57.6595862,27.3103448 58.3448276,27.3103448 C59.030069,27.3103448 59.5862069,27.8664828 59.5862069,28.5517241 C59.5862069,29.2369655 59.030069,29.7931034 58.3448276,29.7931034" id="Fill-472" fill="url(#linearGradient-2)" fill-rule="evenodd"></path>
                <path d="M50.8965517,22.3448276 C50.2113103,22.3448276 49.6551724,21.7886897 49.6551724,21.1034483 C49.6551724,20.4182069 50.2113103,19.862069 50.8965517,19.862069 C51.5817931,19.862069 52.137931,20.4182069 52.137931,21.1034483 C52.137931,21.7886897 51.5817931,22.3448276 50.8965517,22.3448276" id="Fill-473" fill="url(#linearGradient-2)" fill-rule="evenodd"></path>
                <path d="M47.1724138,18.6206897 C46.4871724,18.6206897 45.9310345,18.0645517 45.9310345,17.3793103 C45.9310345,16.694069 46.4871724,16.137931 47.1724138,16.137931 C47.8576552,16.137931 48.4137931,16.694069 48.4137931,17.3793103 C48.4137931,18.0645517 47.8576552,18.6206897 47.1724138,18.6206897" id="Fill-474" fill="url(#linearGradient-2)" fill-rule="evenodd"></path>
                <path d="M47.1724138,26.0689655 C46.4871724,26.0689655 45.9310345,25.5128276 45.9310345,24.8275862 C45.9310345,24.1423448 46.4871724,23.5862069 47.1724138,23.5862069 C47.8576552,23.5862069 48.4137931,24.1423448 48.4137931,24.8275862 C48.4137931,25.5128276 47.8576552,26.0689655 47.1724138,26.0689655" id="Fill-475" fill="url(#linearGradient-2)" fill-rule="evenodd"></path>
                <path d="M50.8965517,29.7931034 C50.2113103,29.7931034 49.6551724,29.2369655 49.6551724,28.5517241 C49.6551724,27.8664828 50.2113103,27.3103448 50.8965517,27.3103448 C51.5817931,27.3103448 52.137931,27.8664828 52.137931,28.5517241 C52.137931,29.2369655 51.5817931,29.7931034 50.8965517,29.7931034" id="Fill-476" fill="url(#linearGradient-2)" fill-rule="evenodd"></path>
                <path d="M47.1724138,33.5172414 C46.4871724,33.5172414 45.9310345,32.9611034 45.9310345,32.2758621 C45.9310345,31.5906207 46.4871724,31.0344828 47.1724138,31.0344828 C47.8576552,31.0344828 48.4137931,31.5906207 48.4137931,32.2758621 C48.4137931,32.9611034 47.8576552,33.5172414 47.1724138,33.5172414" id="Fill-477" fill="url(#linearGradient-2)" fill-rule="evenodd"></path>
                <path d="M43.4482759,22.3448276 C42.7630345,22.3448276 42.2068966,21.7886897 42.2068966,21.1034483 C42.2068966,20.4182069 42.7630345,19.862069 43.4482759,19.862069 C44.1335172,19.862069 44.6896552,20.4182069 44.6896552,21.1034483 C44.6896552,21.7886897 44.1335172,22.3448276 43.4482759,22.3448276" id="Fill-478" fill="url(#linearGradient-2)" fill-rule="evenodd"></path>
                <path d="M39.7241379,18.6206897 C39.0388966,18.6206897 38.4827586,18.0645517 38.4827586,17.3793103 C38.4827586,16.694069 39.0388966,16.137931 39.7241379,16.137931 C40.4093793,16.137931 40.9655172,16.694069 40.9655172,17.3793103 C40.9655172,18.0645517 40.4093793,18.6206897 39.7241379,18.6206897" id="Fill-479" fill="url(#linearGradient-2)" fill-rule="evenodd"></path>
                <path d="M39.7241379,26.0689655 C39.0388966,26.0689655 38.4827586,25.5128276 38.4827586,24.8275862 C38.4827586,24.1423448 39.0388966,23.5862069 39.7241379,23.5862069 C40.4093793,23.5862069 40.9655172,24.1423448 40.9655172,24.8275862 C40.9655172,25.5128276 40.4093793,26.0689655 39.7241379,26.0689655" id="Fill-480" fill="url(#linearGradient-2)" fill-rule="evenodd"></path>
                <path d="M43.4482759,29.7931034 C42.7630345,29.7931034 42.2068966,29.2369655 42.2068966,28.5517241 C42.2068966,27.8664828 42.7630345,27.3103448 43.4482759,27.3103448 C44.1335172,27.3103448 44.6896552,27.8664828 44.6896552,28.5517241 C44.6896552,29.2369655 44.1335172,29.7931034 43.4482759,29.7931034" id="Fill-481" fill="url(#linearGradient-2)" fill-rule="evenodd"></path>
                <path d="M36,22.3448276 C35.3147586,22.3448276 34.7586207,21.7886897 34.7586207,21.1034483 C34.7586207,20.4182069 35.3147586,19.862069 36,19.862069 C36.6852414,19.862069 37.2413793,20.4182069 37.2413793,21.1034483 C37.2413793,21.7886897 36.6852414,22.3448276 36,22.3448276" id="Fill-482" fill="url(#linearGradient-2)" fill-rule="evenodd"></path>
                <path d="M32.2758621,18.6206897 C31.5906207,18.6206897 31.0344828,18.0645517 31.0344828,17.3793103 C31.0344828,16.694069 31.5906207,16.137931 32.2758621,16.137931 C32.9611034,16.137931 33.5172414,16.694069 33.5172414,17.3793103 C33.5172414,18.0645517 32.9611034,18.6206897 32.2758621,18.6206897" id="Fill-483" fill="url(#linearGradient-2)" fill-rule="evenodd"></path>
                <path d="M32.2758621,26.0689655 C31.5906207,26.0689655 31.0344828,25.5128276 31.0344828,24.8275862 C31.0344828,24.1423448 31.5906207,23.5862069 32.2758621,23.5862069 C32.9611034,23.5862069 33.5172414,24.1423448 33.5172414,24.8275862 C33.5172414,25.5128276 32.9611034,26.0689655 32.2758621,26.0689655" id="Fill-484" fill="url(#linearGradient-2)" fill-rule="evenodd"></path>
                <path d="M36,29.7931034 C35.3147586,29.7931034 34.7586207,29.2369655 34.7586207,28.5517241 C34.7586207,27.8664828 35.3147586,27.3103448 36,27.3103448 C36.6852414,27.3103448 37.2413793,27.8664828 37.2413793,28.5517241 C37.2413793,29.2369655 36.6852414,29.7931034 36,29.7931034" id="Fill-485" fill="url(#linearGradient-2)" fill-rule="evenodd"></path>
                <path d="M28.5517241,22.3448276 C27.8664828,22.3448276 27.3103448,21.7886897 27.3103448,21.1034483 C27.3103448,20.4182069 27.8664828,19.862069 28.5517241,19.862069 C29.2369655,19.862069 29.7931034,20.4182069 29.7931034,21.1034483 C29.7931034,21.7886897 29.2369655,22.3448276 28.5517241,22.3448276" id="Fill-486" fill="url(#linearGradient-2)" fill-rule="evenodd"></path>
                <path d="M24.8275862,18.6206897 C24.1423448,18.6206897 23.5862069,18.0645517 23.5862069,17.3793103 C23.5862069,16.694069 24.1423448,16.137931 24.8275862,16.137931 C25.5128276,16.137931 26.0689655,16.694069 26.0689655,17.3793103 C26.0689655,18.0645517 25.5128276,18.6206897 24.8275862,18.6206897" id="Fill-487" fill="url(#linearGradient-2)" fill-rule="evenodd"></path>
                <path d="M24.8275862,26.0689655 C24.1423448,26.0689655 23.5862069,25.5128276 23.5862069,24.8275862 C23.5862069,24.1423448 24.1423448,23.5862069 24.8275862,23.5862069 C25.5128276,23.5862069 26.0689655,24.1423448 26.0689655,24.8275862 C26.0689655,25.5128276 25.5128276,26.0689655 24.8275862,26.0689655" id="Fill-488" fill="url(#linearGradient-2)" fill-rule="evenodd"></path>
                <path d="M28.5517241,29.7931034 C27.8664828,29.7931034 27.3103448,29.2369655 27.3103448,28.5517241 C27.3103448,27.8664828 27.8664828,27.3103448 28.5517241,27.3103448 C29.2369655,27.3103448 29.7931034,27.8664828 29.7931034,28.5517241 C29.7931034,29.2369655 29.2369655,29.7931034 28.5517241,29.7931034" id="Fill-489" fill="url(#linearGradient-2)" fill-rule="evenodd"></path>
                <path d="M24.8275862,33.5172414 C24.1423448,33.5172414 23.5862069,32.9611034 23.5862069,32.2758621 C23.5862069,31.5906207 24.1423448,31.0344828 24.8275862,31.0344828 C25.5128276,31.0344828 26.0689655,31.5906207 26.0689655,32.2758621 C26.0689655,32.9611034 25.5128276,33.5172414 24.8275862,33.5172414" id="Fill-490" fill="url(#linearGradient-2)" fill-rule="evenodd"></path>
                <path d="M21.1034483,22.3448276 C20.4182069,22.3448276 19.862069,21.7886897 19.862069,21.1034483 C19.862069,20.4182069 20.4182069,19.862069 21.1034483,19.862069 C21.7886897,19.862069 22.3448276,20.4182069 22.3448276,21.1034483 C22.3448276,21.7886897 21.7886897,22.3448276 21.1034483,22.3448276" id="Fill-491" fill="url(#linearGradient-2)" fill-rule="evenodd"></path>
                <path d="M17.3793103,18.6206897 C16.694069,18.6206897 16.137931,18.0645517 16.137931,17.3793103 C16.137931,16.694069 16.694069,16.137931 17.3793103,16.137931 C18.0645517,16.137931 18.6206897,16.694069 18.6206897,17.3793103 C18.6206897,18.0645517 18.0645517,18.6206897 17.3793103,18.6206897" id="Fill-492" fill="url(#linearGradient-2)" fill-rule="evenodd"></path>
                <path d="M17.3793103,26.0689655 C16.694069,26.0689655 16.137931,25.5128276 16.137931,24.8275862 C16.137931,24.1423448 16.694069,23.5862069 17.3793103,23.5862069 C18.0645517,23.5862069 18.6206897,24.1423448 18.6206897,24.8275862 C18.6206897,25.5128276 18.0645517,26.0689655 17.3793103,26.0689655" id="Fill-493" fill="url(#linearGradient-2)" fill-rule="evenodd"></path>
                <path d="M21.1034483,29.7931034 C20.4182069,29.7931034 19.862069,29.2369655 19.862069,28.5517241 C19.862069,27.8664828 20.4182069,27.3103448 21.1034483,27.3103448 C21.7886897,27.3103448 22.3448276,27.8664828 22.3448276,28.5517241 C22.3448276,29.2369655 21.7886897,29.7931034 21.1034483,29.7931034" id="Fill-494" fill="url(#linearGradient-2)" fill-rule="evenodd"></path>
                <path d="M13.6551724,22.3448276 C12.969931,22.3448276 12.4137931,21.7886897 12.4137931,21.1034483 C12.4137931,20.4182069 12.969931,19.862069 13.6551724,19.862069 C14.3404138,19.862069 14.8965517,20.4182069 14.8965517,21.1034483 C14.8965517,21.7886897 14.3404138,22.3448276 13.6551724,22.3448276" id="Fill-495" fill="url(#linearGradient-2)" fill-rule="evenodd"></path>
                <path d="M9.93103448,18.6206897 C9.2457931,18.6206897 8.68965517,18.0645517 8.68965517,17.3793103 C8.68965517,16.694069 9.2457931,16.137931 9.93103448,16.137931 C10.6162759,16.137931 11.1724138,16.694069 11.1724138,17.3793103 C11.1724138,18.0645517 10.6162759,18.6206897 9.93103448,18.6206897" id="Fill-496" fill="url(#linearGradient-2)" fill-rule="evenodd"></path>
                <path d="M9.93103448,26.0689655 C9.2457931,26.0689655 8.68965517,25.5128276 8.68965517,24.8275862 C8.68965517,24.1423448 9.2457931,23.5862069 9.93103448,23.5862069 C10.6162759,23.5862069 11.1724138,24.1423448 11.1724138,24.8275862 C11.1724138,25.5128276 10.6162759,26.0689655 9.93103448,26.0689655" id="Fill-497" fill="url(#linearGradient-2)" fill-rule="evenodd"></path>
                <path d="M13.6551724,29.7931034 C12.969931,29.7931034 12.4137931,29.2369655 12.4137931,28.5517241 C12.4137931,27.8664828 12.969931,27.3103448 13.6551724,27.3103448 C14.3404138,27.3103448 14.8965517,27.8664828 14.8965517,28.5517241 C14.8965517,29.2369655 14.3404138,29.7931034 13.6551724,29.7931034" id="Fill-498" fill="url(#linearGradient-2)" fill-rule="evenodd"></path>
                <path d="M6.20689655,22.3448276 C5.52165517,22.3448276 4.96551724,21.7886897 4.96551724,21.1034483 C4.96551724,20.4182069 5.52165517,19.862069 6.20689655,19.862069 C6.89213793,19.862069 7.44827586,20.4182069 7.44827586,21.1034483 C7.44827586,21.7886897 6.89213793,22.3448276 6.20689655,22.3448276" id="Fill-499" fill="url(#linearGradient-2)" fill-rule="evenodd"></path>
                <path d="M2.48275862,18.6206897 C1.79751724,18.6206897 1.24137931,18.0645517 1.24137931,17.3793103 C1.24137931,16.694069 1.79751724,16.137931 2.48275862,16.137931 C3.168,16.137931 3.72413793,16.694069 3.72413793,17.3793103 C3.72413793,18.0645517 3.168,18.6206897 2.48275862,18.6206897" id="Fill-500" fill="url(#linearGradient-2)" fill-rule="evenodd"></path>
                <path d="M2.48275862,26.0689655 C1.79751724,26.0689655 1.24137931,25.5128276 1.24137931,24.8275862 C1.24137931,24.1423448 1.79751724,23.5862069 2.48275862,23.5862069 C3.168,23.5862069 3.72413793,24.1423448 3.72413793,24.8275862 C3.72413793,25.5128276 3.168,26.0689655 2.48275862,26.0689655" id="Fill-501" fill="url(#linearGradient-2)" fill-rule="evenodd"></path>
                <path d="M6.20689655,29.7931034 C5.52165517,29.7931034 4.96551724,29.2369655 4.96551724,28.5517241 C4.96551724,27.8664828 5.52165517,27.3103448 6.20689655,27.3103448 C6.89213793,27.3103448 7.44827586,27.8664828 7.44827586,28.5517241 C7.44827586,29.2369655 6.89213793,29.7931034 6.20689655,29.7931034" id="Fill-502" fill="url(#linearGradient-2)" fill-rule="evenodd"></path>
                <path d="M65.7931034,37.2413793 C65.1078621,37.2413793 64.5517241,36.6852414 64.5517241,36 C64.5517241,35.3147586 65.1078621,34.7586207 65.7931034,34.7586207 C66.4783448,34.7586207 67.0344828,35.3147586 67.0344828,36 C67.0344828,36.6852414 66.4783448,37.2413793 65.7931034,37.2413793" id="Fill-503" fill="url(#linearGradient-2)" fill-rule="evenodd"></path>
                <path d="M43.4482759,37.2413793 C42.7630345,37.2413793 42.2068966,36.6852414 42.2068966,36 C42.2068966,35.3147586 42.7630345,34.7586207 43.4482759,34.7586207 C44.1335172,34.7586207 44.6896552,35.3147586 44.6896552,36 C44.6896552,36.6852414 44.1335172,37.2413793 43.4482759,37.2413793" id="Fill-504" fill="url(#linearGradient-2)" fill-rule="evenodd"></path>
                <path d="M6.20689655,37.2413793 C5.52165517,37.2413793 4.96551724,36.6852414 4.96551724,36 C4.96551724,35.3147586 5.52165517,34.7586207 6.20689655,34.7586207 C6.89213793,34.7586207 7.44827586,35.3147586 7.44827586,36 C7.44827586,36.6852414 6.89213793,37.2413793 6.20689655,37.2413793" id="Fill-505" fill="url(#linearGradient-2)" fill-rule="evenodd"></path>
                <path d="M2.48275862,33.5172414 C1.79751724,33.5172414 1.24137931,32.9611034 1.24137931,32.2758621 C1.24137931,31.5906207 1.79751724,31.0344828 2.48275862,31.0344828 C3.168,31.0344828 3.72413793,31.5906207 3.72413793,32.2758621 C3.72413793,32.9611034 3.168,33.5172414 2.48275862,33.5172414" id="Fill-506" fill="url(#linearGradient-2)" fill-rule="evenodd"></path>
            </g>
        </g>
    </g>
</svg>